<?xml version="1.0" encoding="utf-8" ?>
<svg xmlns="http://www.w3.org/2000/svg" xmlns:xlink="http://www.w3.org/1999/xlink" width="1024" height="1024">
	<g>
		<path fill="#4B312B" d="M426.708 52.0348Q427.316 52.1358 427.92 52.2631C443.756 55.6157 477.249 73.511 491.848 82.2434C548.64 116.214 588.839 153.9 622.85 211.05Q629.015 221.609 633.902 232.816C636.001 237.516 637.84 242.63 640.54 247.009C645.763 255.483 652.596 263.054 657.984 271.503C656.87 276.128 654.667 280.662 652.763 285.017Q650.794 289.502 648.621 293.891Q646.447 298.281 644.073 302.565Q641.7 306.85 639.131 311.02Q636.562 315.19 633.803 319.238Q631.045 323.285 628.102 327.201Q625.16 331.116 622.04 334.892Q618.92 338.668 615.629 342.296Q612.339 345.924 608.884 349.396C608.32 337.766 609.778 326.485 607.966 314.83C603.849 288.34 587.222 264.127 565.778 248.455C541.376 230.62 511.257 222.362 481.223 227.059C456.433 230.935 432.675 244.092 417.836 264.562C400.041 289.108 397.602 317.748 402.277 346.848C378.102 327.999 361.2 307.421 346.848 280.413C342.661 272.535 338.203 263.948 335.975 255.296C355.539 241.526 388.45 228.332 411.689 221.941C421.604 219.214 431.858 217.552 441.662 214.477C410.015 217.687 377.198 227.676 348.692 241.658Q344.945 243.459 341.261 245.386Q337.577 247.313 333.96 249.363Q330.343 251.413 326.798 253.584Q323.253 255.756 319.783 258.046Q316.313 260.336 312.923 262.742Q309.532 265.148 306.225 267.667Q302.918 270.187 299.698 272.817Q296.478 275.446 293.349 278.184Q290.219 280.921 287.185 283.762Q284.15 286.604 281.213 289.546Q278.276 292.489 275.44 295.529Q272.604 298.569 269.873 301.703Q267.141 304.838 264.517 308.063Q261.894 311.288 259.38 314.599Q256.867 317.911 254.467 321.306Q252.068 324.701 249.784 328.175C244.143 336.65 237.897 345.845 234.579 355.521C256.368 321.163 283.237 287.384 318.772 266.329C325.35 303.371 331.978 340.311 343.744 376.144C324.068 366.397 301.962 359.893 280.007 365.023C258.558 370.035 240.563 385.764 229.244 404.203C215.862 426.005 211.86 455.874 217.907 480.6C222.891 500.978 231.674 517.171 246.906 531.669C251.044 535.606 255.521 539.677 260.411 542.646C255.977 537.95 251.156 533.619 246.819 528.826C234.146 514.82 224.613 497.563 221.519 478.818C217.455 454.198 223.03 427.035 237.72 406.746C249.145 390.966 266.573 378.623 286.101 375.626C308.252 372.226 331.916 381.232 349.567 394.347C369.824 409.399 382.287 432.156 385.751 456.949C388.847 479.113 382.228 502.261 368.616 519.961C347.87 546.936 311.863 560.471 279.189 565.645Q265.85 567.717 252.419 569.069C247.552 569.519 242.692 569.651 237.835 570.268C238.781 573.986 240.205 577.655 241.437 581.292C247.769 579.826 254.517 578.865 260.995 578.396C263.651 578.204 267.444 577.777 269.547 579.583L269.094 580.574C263.198 584.731 250.832 586.348 243.644 587.804C245.393 593.409 247.378 598.913 249.381 604.431C255.069 601.808 272.868 591.984 278.766 593.751L278.812 594.645C274.617 600.648 258.587 606.626 251.654 609.633C254.065 615.993 256.557 620.911 262.472 624.705C298.757 647.973 356.998 651.031 398.266 641.916C401.535 625.513 401.551 607.742 402.601 591.027C403.858 571.002 406.061 550.4 405.297 530.357C411.559 522.248 439.938 502.597 449.689 494.924C502.246 453.57 556.596 414.565 609.598 373.805C619.272 366.365 629.187 359.181 638.77 351.634C644.314 347.268 649.583 342.551 655.084 338.128C661.891 332.657 669.222 327.466 675.457 321.344L673.142 316.909C663.728 324.069 656.073 334.996 645.521 340.437C648.417 333.63 652.59 327.926 657.21 322.188C676.461 298.276 701.394 278.582 726.726 261.467C730.414 258.975 737.061 253.66 741.343 253.202L742.048 253.772C741.888 260.277 692.986 300.243 684.804 308.481L697.328 319.859C698.681 317.409 699.997 315.249 702.414 313.743C703.801 313.591 703.771 313.567 704.92 314.354C707.266 318.241 706.608 323.274 706.487 327.646C710.321 330.955 714.667 333.817 718.765 336.798C728.181 333.814 774.626 318.111 780.985 318.843C781.937 319.783 782.277 320.612 782.564 321.887C784.289 329.537 784.953 337.759 786.078 345.535L794.077 404.422C804.139 477.943 812.1 551.668 821.551 625.256Q826.52 661.698 832.362 698.011C835.456 716.314 839.137 734.491 842.534 752.738C838.083 761.602 827.017 768.36 819.612 774.912C811.61 781.991 803.926 789.428 795.907 796.492C787.265 804.104 778.008 811.385 770.126 819.776C797.08 808.699 826.767 798.617 847.031 776.662C864.705 757.513 866.555 738.932 859.028 714.68C856.662 707.056 853.333 699.29 853.085 691.228Q853.062 690.397 853.079 689.566Q853.097 688.734 853.155 687.905Q853.213 687.076 853.312 686.25Q853.41 685.425 853.549 684.605Q853.688 683.785 853.866 682.973Q854.045 682.161 854.263 681.359Q854.481 680.556 854.738 679.766Q854.995 678.975 855.29 678.198Q855.585 677.42 855.918 676.659Q856.25 675.897 856.62 675.152Q856.99 674.407 857.395 673.681Q857.801 672.955 858.241 672.25Q858.682 671.545 859.156 670.862Q859.63 670.179 860.137 669.521Q860.645 668.862 861.183 668.229Q861.722 667.595 862.291 666.989C868.857 660.081 878.718 656.178 888.176 655.971C902.322 655.661 915.333 661.545 925.467 671.208C942.093 687.062 949.265 711.002 949.659 733.497C950.225 765.708 935.38 796.676 913.163 819.572C863.732 870.511 773.736 892.665 705.325 900.789C689.563 902.661 673.618 904.346 657.736 904.555C652.416 907.433 647.433 911.516 642.432 914.941Q628.132 924.595 613.641 933.959C584.388 952.531 554.627 969.015 523.794 984.756C519.132 983.387 514.076 982.951 509.289 982.123C499.454 980.42 489.606 978.687 479.802 976.817C461.686 973.362 443.617 969.473 425.562 965.708C401.342 960.657 377.261 955.632 353.749 947.826C355.637 932.345 360.013 915.475 362.897 899.932Q371.422 854.757 378.486 809.33C370.897 806.827 363.472 802.669 358.114 796.637C347.081 784.218 346.444 761.714 347.393 746.122C347.853 738.568 349.355 731.319 351.483 724.065C359.265 697.541 376.441 683.991 396.178 666.52Q396.807 660.531 397.171 654.52C354.96 661.036 313.759 659.661 273.646 643.8C268.002 641.568 262.119 639.403 256.736 636.592C247.024 631.52 244.218 624.943 241.13 615.02C229.736 620.014 166.099 651.469 159.19 651.115C158.27 651.068 158.627 651.146 157.915 650.34C157.718 649.411 157.486 648.723 157.785 647.785C158.458 645.676 230.545 611.889 240.024 607.421Q236.981 598.124 233.797 588.875C223.006 589.739 212.279 591.7 201.522 592.931C192.238 593.993 138.711 599.383 133.57 597.381C132.438 596.941 132.46 596.538 132.088 595.478L132.8 594.428C138.419 591.249 219.416 583.795 233.013 582.33C232.98 582.246 232.947 582.164 232.915 582.08C229.639 573.312 223.746 564.986 219.293 556.719C209.019 537.644 200.648 514.422 198.362 492.83C148.135 452.398 121.81 397.608 92.999 341.493C89.4294 334.541 77.2622 313.426 76.87 307.728C76.8024 306.747 76.9457 306.54 77.6273 305.821C80.7493 302.525 91.4949 301.776 95.9714 300.897C140.483 292.154 180.561 289.832 225.804 292.668C231.091 293 250.905 293.583 253.512 296.535C254.1 298.108 254.013 299.346 253.255 300.841C252.293 302.74 248.588 302.823 246.771 302.855C237.355 303.018 227.735 301.712 218.277 301.507Q197.247 300.968 176.238 302.04Q155.229 303.113 134.363 305.79C128.707 306.55 122.098 307.035 116.745 309.053C135.479 308.7 154.355 305.655 173.103 304.644C197.087 303.349 221.586 305.554 245.331 308.812C240.741 318.431 233.421 327.102 228.096 336.454C224.197 343.3 220.614 353.143 215.419 358.867C205.944 354.727 197.211 348.996 187.674 344.894C157.12 331.754 124.041 322.653 91.5056 316.018C97.8394 327.874 103.301 340.174 109.79 351.952C132.582 393.317 161.627 433.087 196.927 464.617Q196.935 444.538 199.137 424.58C193.56 424.155 168.792 422.542 165.21 421.202L165.925 420.327C175.062 416.708 190.241 417.247 200.297 417.192C200.896 415.363 201.355 413.475 201.864 411.618Q193.034 409.487 184.443 406.538Q175.852 403.59 167.574 399.85C177.475 401.258 193.469 405.29 202.312 410.109L204.424 401.252C193.97 398.846 184.15 394.689 173.929 391.537C167.563 389.575 160.661 388.655 154.571 385.954C172.043 385.375 189.225 392.028 205.961 396.269C212.899 367.267 233.721 330.68 252.594 307.636C288.361 263.961 331.097 235.241 384.388 216.824C400.219 211.353 416.613 206.518 433.334 204.913C421.549 160.45 422.765 98.0541 426.708 52.0348ZM318.689 547.644Q319.684 547.386 320.672 547.105Q321.661 546.823 322.642 546.518Q323.623 546.212 324.597 545.883Q325.57 545.554 326.536 545.201Q327.501 544.849 328.458 544.473Q329.414 544.097 330.361 543.698Q331.308 543.299 332.246 542.877Q333.183 542.455 334.109 542.011Q335.036 541.566 335.952 541.1Q336.867 540.633 337.772 540.144Q338.676 539.655 339.568 539.145Q340.46 538.634 341.339 538.102Q342.218 537.57 343.085 537.017Q343.951 536.464 344.803 535.89Q345.656 535.316 346.494 534.722Q347.333 534.128 348.156 533.513Q348.98 532.898 349.789 532.264Q350.597 531.63 351.39 530.976Q352.183 530.322 352.96 529.65Q353.737 528.977 354.498 528.285Q355.258 527.594 356.001 526.884Q356.745 526.175 357.471 525.448Q358.197 524.72 358.905 523.975Q359.613 523.231 360.303 522.469Q360.993 521.707 361.665 520.929Q362.336 520.151 362.988 519.357Q363.641 518.562 364.273 517.753Q364.906 516.943 365.519 516.118Q366.132 515.293 366.725 514.453Q367.318 513.614 367.89 512.76Q368.463 511.907 369.014 511.04Q369.566 510.172 370.096 509.292C381.479 490.3 384.547 468.547 379.093 447.104Q378.831 446.074 378.544 445.051Q378.257 444.028 377.944 443.012Q377.631 441.997 377.294 440.989Q376.956 439.982 376.593 438.983Q376.23 437.984 375.843 436.994Q375.456 436.005 375.044 435.025Q374.632 434.046 374.196 433.077Q373.76 432.108 373.3 431.15Q372.84 430.192 372.357 429.246Q371.873 428.299 371.366 427.365Q370.859 426.431 370.329 425.51Q369.799 424.589 369.247 423.682Q368.694 422.774 368.119 421.88Q367.544 420.987 366.947 420.108Q366.35 419.229 365.731 418.365Q365.113 417.501 364.473 416.653Q363.833 415.804 363.172 414.972Q362.511 414.14 361.83 413.324Q361.149 412.509 360.447 411.71Q359.746 410.912 359.025 410.131Q358.304 409.351 357.564 408.588Q356.824 407.826 356.065 407.082Q355.306 406.338 354.529 405.613Q353.752 404.888 352.958 404.183Q352.163 403.477 351.351 402.792Q350.539 402.107 349.71 401.442Q348.881 400.777 348.036 400.132Q347.191 399.488 346.33 398.865Q345.469 398.242 344.593 397.641Q343.717 397.039 342.827 396.46Q341.936 395.88 341.031 395.323Q340.126 394.766 339.208 394.231C326.781 386.957 310.929 382.688 296.472 384.197C277.928 386.325 261.792 394.903 250.143 409.577C236.146 427.209 230.855 450.258 233.534 472.433C236.292 495.262 248.234 518.848 266.463 533.167C280.147 543.915 297.691 550.4 315.207 548.162Q316.954 547.944 318.689 547.644ZM676.84 890.565C689.333 889.578 701.733 888.561 714.113 886.55C727.055 884.208 740.19 882.422 753.043 879.66C810.075 867.406 883.964 843.095 918.716 792.924C933.636 771.385 941.214 744.354 936.38 718.278C933.339 701.878 926.045 685.379 911.892 675.673C904.387 670.526 895.105 667.659 885.964 668.665C879.171 669.641 872.86 672.198 868.617 677.858C865.049 682.619 864.011 688.215 864.947 694.019C866.013 700.63 869.253 706.833 871.311 713.179C878.318 734.785 877.419 755.694 864.162 774.686C841.559 807.066 801.861 820.344 766.425 833.121C760.054 835.418 752.613 835.763 746.658 838.93C742.797 840.984 739.285 844.3 735.849 847.014C729.448 852.071 723.089 857.216 716.566 862.114C708.465 868.197 700.271 874.361 691.974 880.174C686.98 883.674 681.675 886.857 676.84 890.565ZM497.055 202L510.155 202.145C500.919 186.731 488.686 171.668 475.939 159.032C474.284 157.174 472.642 155.374 471.249 153.304C488.444 163.134 504.443 185.142 513.448 202.776C526.9 203.589 539.667 205.598 552.715 209.016C548.466 199.896 543.295 191.477 538.026 182.926C515.366 146.151 487.169 113.959 456.244 83.9638C451.04 78.9162 440.98 68.4059 435.431 64.6865C435.62 103.619 440.974 167.917 454.191 204.223C465.053 202.741 475.365 202.06 486.309 202.15C483.034 195.297 479.092 189.184 475.308 182.626C472.531 177.814 470.687 173.597 467.135 169.16C466.701 168.617 466.841 168.829 466.681 168.077C467.695 167.645 467.287 167.586 468.232 168.006C476.18 171.539 492.364 194.131 497.055 202ZM356.709 750.922C356.459 762.98 357.406 781.527 366.369 790.758C369.851 794.345 374.354 796.723 379.159 797.996C379.84 794.72 380.531 791.459 381.001 788.144C376.962 785.912 374.13 783.302 371.057 779.884C368.665 776.508 367.07 773.037 365.61 769.18C370.663 774.694 374.749 778.242 382.268 779.985Q383.209 774.758 384.002 769.507C375.543 767.759 365.334 764.784 360.375 757.036C359.186 755.177 358.199 752.475 356.709 750.922ZM394.277 675.363C380.349 686.331 365.644 703.586 363.418 721.758C362.381 730.22 362.475 743.331 368.119 750.24C371.408 754.266 379.066 756.965 384.22 757.431C385.11 757.511 385.262 757.592 385.983 757.02C386.218 755.367 386.494 753.708 386.64 752.045L387.611 746.386C383.39 740.869 377.237 727.384 378.509 720.449C378.636 719.755 378.702 719.697 378.971 719.151C380.058 719.574 386.72 734.15 388.235 736.748C390.706 721.386 392.475 705.664 393.903 690.169C394.32 685.646 395.326 680.406 394.788 675.901L394.277 675.363Z"/>
		<path fill="#D5C19E" d="M772.431 337.434C776.001 341.561 785.845 432.672 787.774 446.528C794.101 491.997 798.674 537.661 804.109 583.244C806.566 603.855 809.508 624.436 812.302 645.005Q816.143 673.719 821.003 702.278C823.764 718.048 827.402 734.152 828.621 750.102C815.008 764.121 799.13 776.521 784.443 789.426C773.956 798.639 763.891 808.391 753.15 817.301C733.231 833.824 712.249 849.149 691.39 864.453C646.761 897.196 601.23 928.013 553.24 955.627C545.099 959.982 537.085 964.604 528.974 969.022Q529.44 907.707 528.341 846.4Q527.507 735.697 518.738 625.338Q516.678 601.055 514.08 576.823C512.775 565.62 511.067 554.477 509.868 543.258C527.98 527.6 547.467 513.494 566.323 498.763L696.419 398.672C703.015 393.601 709.286 388.076 715.734 382.816L750.972 354.427C757.971 348.793 764.878 342.245 772.431 337.434Z"/>
		<path fill="#4B312B" d="M729.663 392.586C734.68 392.162 739.215 392.531 743.693 395.113C748.85 398.086 752.782 403.67 754.055 409.489C755.445 415.836 760.703 421.534 763.524 427.497C781.615 465.74 777.695 537.634 770.936 578.713C767.704 598.356 762.99 618.072 756.199 636.802C746.415 663.784 730.595 693.278 703.38 705.813C690.439 711.773 675.966 714.036 662.337 708.959C632.001 697.659 618.944 657.817 611.775 629.16C609.227 618.974 607.452 608.612 604.864 598.433C601.668 585.866 597.826 573.646 592.483 561.821C586.938 563.33 581.452 563.711 576.078 561.335C569.09 558.247 565.537 552.106 562.821 545.374C560.693 536.755 561.389 529.203 565.548 521.309C568.729 515.27 573.794 509.679 580.537 507.751C585.265 506.399 590.229 507.114 594.473 509.559Q595.065 509.907 595.638 510.285Q596.211 510.662 596.765 511.068Q597.319 511.474 597.851 511.907Q598.384 512.34 598.894 512.8Q599.404 513.259 599.89 513.744Q600.376 514.229 600.837 514.737Q601.298 515.245 601.733 515.776Q602.168 516.308 602.576 516.86Q602.984 517.412 603.363 517.984Q603.743 518.556 604.093 519.147Q604.443 519.737 604.763 520.344Q605.083 520.952 605.372 521.574Q605.661 522.197 605.918 522.833Q606.176 523.47 606.401 524.118Q606.625 524.767 606.817 525.426Q607.009 526.085 607.168 526.753C607.855 529.546 608.214 532.623 609.321 535.277C610.885 539.027 613.109 542.639 614.95 546.271C618.545 553.363 621.994 560.669 624.697 568.144C631.499 586.951 634.372 607.267 639.449 626.606C643.726 642.896 652.432 671.175 667.63 679.643C674.005 683.194 681.552 683.641 688.457 681.515C702.825 677.091 712.914 662.645 719.581 650.009C742.527 606.517 749.131 550.811 748.45 502.225C748.178 482.781 747.03 462.768 741.198 444.103C736.156 445.913 731.181 445.803 726.253 443.566C720.359 440.89 716 435.354 713.708 429.396C710.891 422.073 711.58 413.807 714.768 406.723C717.856 399.862 722.681 395.245 729.663 392.586Z"/>
		<path fill="#D5C19E" d="M734.784 414.739C737.493 414.827 739.564 415.859 741.715 417.462C755.232 427.538 759.85 451.598 762.042 467.299C768.527 513.766 763.931 562.063 752.496 607.368C746.748 630.141 739.082 653.683 724.689 672.578C714.979 685.325 701.319 697.096 684.909 699.245C629.994 706.437 622.075 611.107 610.002 575.474C605.214 561.342 597.989 545.16 585.772 535.88L585.23 535.475C584.604 535.124 583.738 534.731 583.226 534.238C582.301 533.346 582.351 533.015 582.403 531.841L583.332 531.041C584.207 530.879 584.89 530.775 585.772 530.973C590.625 532.059 594.683 536.601 597.646 540.38C619.058 567.688 621.136 605.624 630.605 637.781Q631.972 642.48 633.621 647.089Q635.27 651.697 637.195 656.197Q639.119 660.697 641.312 665.072Q643.505 669.448 645.959 673.683C651.494 683.191 659.936 691.026 670.785 693.813C682.038 696.703 693.083 693.04 702.711 687.183C731.303 669.793 743.456 626.834 750.822 596.121C760.503 555.753 766.834 476.249 750.106 437.877C747.997 433.037 745.129 428.247 741.419 424.455C739.56 422.555 735.357 419.814 734.228 417.638C733.908 417.021 734.593 415.433 734.784 414.739Z"/>
		<path fill="#D5C19E" d="M583.165 515.093Q584.412 514.983 585.66 515.079C589.964 515.417 592.367 519.102 594.868 522.162C591.389 520.589 588.144 519.46 584.253 520.018C580.79 520.513 577.767 522.411 575.732 525.246C573.05 528.984 572.271 533.938 573.198 538.398C574.391 544.137 577.762 547.443 582.487 550.462C583.297 550.857 584.144 551.241 584.908 551.719C585.811 552.283 586.512 552.69 586.723 553.769C584.998 554.173 582.808 553.277 581.208 552.64C576.636 550.818 572.869 547.468 570.934 542.894C568.738 537.702 568.813 531.115 570.98 525.927C573.381 520.179 577.583 517.259 583.165 515.093Z"/>
		<path fill="#D5C19E" d="M729.581 400.572C730.471 400.463 731.377 400.349 732.275 400.349C735.663 400.351 737.874 402.929 740.104 405.115C738.494 404.913 736.838 404.657 735.216 404.603C732.348 404.508 729.228 406.252 727.289 408.28C724.323 411.382 722.942 415.815 723.101 420.057C723.334 426.296 726.424 431.008 730.87 435.08L735.595 438.325Q734.09 438.031 732.6 437.673Q731.774 437.47 730.973 437.186Q730.171 436.901 729.403 436.538Q728.634 436.174 727.906 435.735Q727.178 435.295 726.498 434.785Q725.817 434.275 725.192 433.699Q724.566 433.123 724.002 432.487Q723.438 431.85 722.94 431.161Q722.443 430.471 722.017 429.735C719.071 424.669 718.681 418.194 720.175 412.604C721.658 407.049 724.671 403.412 729.581 400.572Z"/>
		<path fill="#4B312B" d="M785.888 745.004L786.044 745.105L786.068 745.567C775.771 752.907 766.101 761.363 756.107 769.134Q726.687 791.952 696.924 814.32Q666.488 837.418 635.391 859.617Q599.589 884.541 563.159 908.54L562.816 908.284C564.482 905.008 762.917 759.512 785.888 745.004Z"/>
		<path fill="#4B312B" d="M762.432 776.517L762.636 776.678C761.588 780.768 703.712 825.013 697.291 829.58Q680.653 841.49 663.079 851.969L662.788 851.752C665.432 848.224 671.082 845.198 674.603 842.39C703.228 819.57 733.471 798.864 762.432 776.517Z"/>
		<path fill="#D5C19E" d="M485.975 510.447C486.112 510.537 486.263 510.608 486.385 510.717C488.734 512.824 489.88 520.755 490.902 523.972C493.356 531.692 496.367 539.411 498.1 547.323C500.415 557.889 501.026 569.286 502.177 580.045Q506.319 618.345 508.658 656.798C515.472 758.07 515.97 859.306 515.99 960.753C503.97 933.294 476.792 897.539 457.719 874.438L458.009 875.389C462.082 888.984 483.115 915.261 491.691 928.726C500.315 942.268 507.746 956.386 514.816 970.782C482.284 964.078 449.319 959.176 417.016 951.327C401.369 948.245 385.861 944.106 370.308 940.558C376.935 934.621 384.759 929.524 391.922 924.239L432.052 894.483C440.383 888.247 450.811 881.584 456.963 873.121C447.898 876.758 438.909 883.933 430.801 889.397Q399.575 910.257 369.679 932.982Q379.083 884.177 386.799 835.077Q394.515 785.977 400.534 736.641Q406.552 687.304 410.866 637.789Q415.18 588.274 417.785 538.64C427.711 533.452 438.934 530.043 449.374 526.004Q467.86 518.662 485.975 510.447Z"/>
		<path fill="#4B312B" d="M479.799 528.836C479.859 529.057 479.934 529.275 479.978 529.5C480.985 534.6 480.087 544.077 480.048 549.803Q479.246 610.348 475.309 670.77Q471.237 747.414 463.685 823.793C462.676 833.661 460.935 862.487 456.578 869.737C455.719 866.581 464.1 781.696 464.915 771.271Q470.887 698.24 474.767 625.069L477.567 559.353C477.982 550.285 477.495 537.197 479.799 528.836Z"/>
		<path fill="#4B312B" d="M311.033 415.089C316.887 414.682 321.906 416.893 326.72 419.926C325.44 421.67 324.069 423.416 323.539 425.556C322.727 428.837 323.583 432.309 325.463 435.061Q325.875 435.661 326.345 436.217Q326.815 436.772 327.338 437.278Q327.861 437.784 328.432 438.235Q329.003 438.686 329.617 439.077Q330.23 439.469 330.88 439.797Q331.529 440.125 332.208 440.386Q332.888 440.647 333.589 440.839Q334.291 441.031 335.009 441.152C339.361 441.876 342.29 440.702 345.802 438.25Q348.807 442.378 351.314 446.825C357.404 457.625 363.018 473.271 359.146 485.733C357.639 490.583 354.739 493.47 350.309 495.732C342.471 497.592 335.227 495.536 328.444 491.539C313.005 482.443 300.815 464.686 296.577 447.416C294.688 439.723 293.773 430.135 298.257 423.153C301.266 418.466 305.754 416.248 311.033 415.089Z"/>
		<path fill="#D5C19E" d="M682.968 331.105C684.841 334.553 687.201 380.472 688.082 388.601Q630.842 433.669 572.801 477.7L534.012 507.761C526.567 513.556 518.875 519.122 511.737 525.293Q506.593 509.247 499.397 494.011C488.253 496.717 477.004 501.915 466.375 506.234C457.087 509.799 447.948 513.842 438.739 517.616C464.385 499.784 489.078 480.483 513.984 461.642Q567.706 421.556 620.528 380.291L658.684 350.37C666.768 343.948 674.657 337.231 682.968 331.105Z"/>
		<path fill="#D5C19E" d="M697.516 339.723C703.216 342.908 708.658 347.616 713.944 351.472C723.371 349.936 739.97 343.443 749.996 340.446C744.402 345.264 738.541 349.829 732.821 354.502Q716.409 368.448 698.928 381.029C698.894 367.227 697.911 353.505 697.516 339.723Z"/>
		<path fill="#FEFEFE" d="M461.595 73.4604C464.32 74.1823 466.839 75.479 469.324 76.7887C486.006 85.5795 502.755 95.0484 517.738 106.549C557.464 137.042 596.606 183.711 620.6 227.672C626.105 237.759 631.429 248.243 634.861 259.243C631.393 254.783 628.224 244.652 625.415 239.052C619.259 226.776 612.159 214.52 604.518 203.112C583.686 172.009 552.824 139.609 523.876 116.082C513.431 107.593 502.245 99.8223 491.198 92.1316C481.611 85.458 471.135 80.1855 461.595 73.4604Z"/>
		<path fill="#4B312B" d="M489.346 239.215C510.072 238.228 528.265 242.669 546.387 252.763C570.401 266.139 588.876 290.536 596.297 316.92C601.125 334.082 601.776 355.898 592.658 371.823C580.337 393.342 542.819 411.888 519.375 418.253Q510.213 420.457 500.819 421.198C479.033 422.758 459.591 415.817 443.287 401.506C423.325 383.982 412.369 358.946 410.862 332.582C409.534 309.357 415.353 284.231 431.158 266.584C446.01 250.001 467.257 240.545 489.346 239.215ZM509.613 415.542C533.748 410.489 562.016 400.982 576.269 379.388C586.751 363.509 588.231 342.008 584.299 323.8C579.068 299.58 563.724 279.666 543.007 266.479C527.561 256.647 510.493 252.216 492.258 252.222C470.644 253.141 451.695 260.383 436.759 276.555C422.93 291.527 415.74 313.251 416.556 333.501C417.505 357.031 427.542 381.084 445.11 397.001C460.012 410.503 479.201 417.809 499.323 416.721Q504.499 416.402 509.613 415.542Z"/>
		<path fill="#4B312B" d="M478.414 300.631C485.3 300.166 490.862 301.678 496.842 304.943C495.327 306.362 493.578 307.821 492.357 309.503C490.968 311.418 490.622 313.667 491.057 315.969C491.855 320.191 495.053 324.209 498.545 326.578C501.371 328.496 504.784 329.597 508.183 328.77C511.947 327.854 513.494 325.389 515.467 322.351C523.106 332.625 528.711 344.872 529.187 357.818C529.491 366.087 528.136 373.673 522.349 379.968C521.078 380.808 519.703 381.636 518.244 382.092C510.65 384.462 502.047 381.495 495.371 377.781C480.187 369.336 468.529 352.786 463.997 336.204C461.665 327.671 460.32 317.319 465.109 309.361C468.192 304.238 472.798 301.925 478.414 300.631Z"/>
		<path fill="#4B312B" d="M580.852 120.973Q584.668 121.569 588.462 122.294C613.485 127.12 637.617 135.171 661.052 145.057Q664.472 146.478 667.865 147.962Q671.258 149.445 674.623 150.991Q677.988 152.537 681.324 154.144Q684.661 155.752 687.967 157.42Q691.273 159.089 694.547 160.818Q697.822 162.547 701.065 164.336Q704.307 166.125 707.516 167.973Q710.725 169.822 713.9 171.729Q717.074 173.636 720.213 175.601Q723.352 177.566 726.454 179.588Q729.556 181.611 732.62 183.69Q735.685 185.769 738.711 187.905Q741.736 190.04 744.722 192.231Q747.708 194.421 750.653 196.666Q753.598 198.911 756.501 201.21Q759.405 203.509 762.265 205.861Q765.126 208.213 767.942 210.617Q770.759 213.021 773.531 215.477Q776.303 217.932 779.03 220.439Q781.756 222.945 784.436 225.5Q787.116 228.056 789.748 230.661Q792.38 233.266 794.964 235.918Q797.549 238.571 800.083 241.271Q802.618 243.971 805.103 246.717Q807.588 249.463 810.021 252.254Q812.455 255.045 814.837 257.88Q817.219 260.716 819.549 263.595Q821.878 266.474 824.154 269.395Q826.43 272.316 828.652 275.278Q830.874 278.241 833.042 281.244Q835.209 284.247 837.32 287.289Q839.432 290.331 841.487 293.412C849.775 305.678 856.621 318.701 863.403 331.836Q864.929 334.783 866.404 337.756Q867.88 340.729 869.305 343.726Q870.73 346.724 872.104 349.745Q873.478 352.766 874.8 355.81Q876.123 358.854 877.394 361.92Q878.665 364.985 879.883 368.072Q881.102 371.159 882.268 374.267Q883.435 377.374 884.548 380.5Q885.662 383.627 886.722 386.772Q887.782 389.916 888.789 393.079Q889.796 396.241 890.749 399.42Q891.703 402.599 892.602 405.794Q893.501 408.989 894.346 412.198Q895.191 415.408 895.982 418.631Q896.772 421.854 897.508 425.091Q898.244 428.327 898.924 431.575Q899.605 434.823 900.231 438.083Q900.857 441.342 901.427 444.611Q901.998 447.881 902.513 451.159Q903.028 454.438 903.487 457.725Q903.946 461.012 904.35 464.306Q904.753 467.6 905.101 470.901Q905.449 474.201 905.741 477.507Q906.033 480.813 906.268 484.124Q906.504 487.434 906.684 490.748Q906.863 494.062 906.987 497.379Q907.11 500.695 907.178 504.013Q907.245 507.332 907.256 510.65Q907.267 513.969 907.222 517.288Q907.177 520.606 907.075 523.924Q906.974 527.241 906.816 530.556Q906.659 533.871 906.445 537.183C905.156 556.232 902.182 574.989 898.527 593.717C896.507 604.072 890.459 631.887 885.27 640.091C884.591 641.164 883.61 641.872 882.572 642.569C881.954 642.6 881.332 642.628 880.712 642.604C879.108 642.539 877.436 641.748 876.452 640.449C874.911 638.416 875.547 635.131 876.189 632.883C879.412 621.606 883.26 610.588 886.085 599.156C891.689 576.482 894.644 552.382 896.059 529.08Q896.859 514 896.327 498.907Q895.795 483.815 893.937 468.828Q893.451 464.575 892.871 460.334Q892.291 456.092 891.618 451.865Q890.945 447.637 890.179 443.426Q889.413 439.214 888.555 435.02Q887.697 430.826 886.746 426.652Q885.796 422.478 884.754 418.326Q883.712 414.174 882.579 410.046Q881.446 405.918 880.223 401.816Q879 397.713 877.686 393.639Q876.373 389.565 874.97 385.52Q873.568 381.476 872.077 377.463Q870.585 373.451 869.006 369.472Q867.427 365.493 865.761 361.55Q864.095 357.606 862.342 353.701Q860.589 349.795 858.751 345.929Q856.913 342.063 854.991 338.238Q853.068 334.414 851.062 330.632Q849.056 326.851 846.967 323.114Q844.878 319.378 842.707 315.688Q840.537 311.998 838.286 308.357Q836.034 304.716 833.704 301.125Q831.373 297.535 828.964 293.996Q826.555 290.458 824.068 286.973Q821.582 283.488 819.02 280.059Q816.457 276.63 813.82 273.258Q811.183 269.886 808.472 266.573Q805.761 263.26 802.979 260.007Q800.196 256.754 797.342 253.564Q794.488 250.373 791.565 247.246Q788.641 244.118 785.65 241.056Q782.659 237.994 779.601 234.998Q776.543 232.003 773.42 229.075Q767.531 223.719 761.436 218.596Q755.342 213.474 749.053 208.593Q742.763 203.713 736.288 199.082Q729.812 194.45 723.161 190.076Q716.51 185.701 709.692 181.589Q702.875 177.478 695.903 173.636Q688.93 169.793 681.813 166.226Q674.696 162.659 667.445 159.373C647.295 150.078 626.235 142.952 604.949 136.796C600.462 135.499 579.869 131.237 578.138 128.571C577.602 127.746 577.468 127.101 577.55 126.151C577.757 123.777 579.145 122.465 580.852 120.973Z"/>
		<path fill="#4B312B" d="M104.832 394.892C106.406 395.068 107.973 395.184 109.317 396.103C110.435 396.867 111.235 397.938 111.453 399.292C112.176 403.787 108.321 414.116 107.098 418.835Q105.751 424.186 104.553 429.573Q103.355 434.96 102.306 440.377Q101.258 445.795 100.36 451.24Q99.4619 456.685 98.7152 462.152Q97.9686 467.62 97.3738 473.106Q96.779 478.592 96.3364 484.093Q95.8939 489.593 95.604 495.104Q95.3141 500.615 95.177 506.131Q95.0399 511.648 95.0558 517.166Q95.0717 522.685 95.2405 528.2Q95.4093 533.716 95.731 539.225Q96.0526 544.734 96.5268 550.232Q97.001 555.73 97.6274 561.212Q98.2538 566.695 99.0319 572.158Q99.8099 577.621 100.739 583.061Q101.668 588.5 102.748 593.912Q103.581 597.97 104.497 602.011Q105.412 606.052 106.408 610.074Q107.405 614.095 108.482 618.096Q109.559 622.097 110.717 626.075Q111.874 630.053 113.112 634.007Q114.349 637.961 115.667 641.889Q116.984 645.817 118.38 649.718Q119.775 653.619 121.25 657.491Q122.724 661.363 124.276 665.205Q125.828 669.046 127.457 672.855Q129.086 676.665 130.792 680.441Q132.498 684.217 134.279 687.957Q136.06 691.698 137.917 695.402Q139.773 699.106 141.704 702.772Q143.634 706.437 145.639 710.064Q147.643 713.69 149.72 717.275Q151.796 720.86 153.945 724.402Q156.094 727.945 158.313 731.443Q160.533 734.942 162.823 738.395Q165.112 741.848 167.471 745.254Q169.83 748.66 172.257 752.018Q174.684 755.376 177.178 758.684Q179.672 761.992 182.233 765.25Q184.793 768.507 187.419 771.712Q190.044 774.917 192.734 778.069Q195.423 781.22 198.176 784.317Q200.928 787.413 203.743 790.454Q206.557 793.495 209.432 796.478Q212.307 799.461 215.242 802.386Q218.177 805.31 221.17 808.175Q224.163 811.04 227.213 813.844Q230.263 816.648 233.369 819.39C245.837 830.461 258.796 841.117 272.645 850.428C287.369 860.327 302.277 869.377 318.139 877.357C324.224 880.419 341.91 887.491 345.977 890.548C346.923 891.259 347.332 892.261 347.408 893.441C347.574 896.031 345.984 898.079 344.304 899.837C337.946 898.844 331.738 895.408 325.931 892.731Q313.873 887.141 302.21 880.769Q290.547 874.396 279.329 867.268Q268.112 860.141 257.389 852.288Q246.666 844.436 236.484 835.894Q232.512 832.591 228.621 829.192Q224.731 825.793 220.925 822.3Q217.119 818.807 213.4 815.222Q209.68 811.636 206.05 807.961Q202.419 804.286 198.88 800.523Q195.34 796.76 191.894 792.912Q188.447 789.063 185.096 785.132Q181.745 781.2 178.491 777.188Q175.237 773.175 172.082 769.085Q168.927 764.994 165.873 760.827Q162.82 756.66 159.869 752.42Q156.918 748.18 154.071 743.869Q151.225 739.557 148.485 735.178Q145.745 730.798 143.113 726.353Q140.481 721.908 137.959 717.4Q135.436 712.891 133.025 708.323Q130.613 703.754 128.314 699.128Q126.015 694.501 123.83 689.82Q121.645 685.139 119.576 680.406Q117.506 675.672 115.552 670.89Q113.599 666.107 111.763 661.278Q109.927 656.45 108.21 651.577Q106.493 646.705 104.896 641.792Q103.299 636.879 101.822 631.929Q100.345 626.978 98.9901 621.993Q97.635 617.008 96.4022 611.991Q95.1695 606.974 94.0599 601.929Q92.9503 596.884 91.9644 591.812Q90.9786 586.741 90.1171 581.648Q89.2557 576.554 88.5191 571.441Q87.7825 566.328 87.1713 561.198Q86.5601 556.068 86.0745 550.925Q85.2549 542.571 84.8029 534.189Q84.351 525.807 84.2677 517.413Q84.1843 509.019 84.4697 500.629Q84.755 492.24 85.4086 483.871Q86.0621 475.503 87.0826 467.171Q88.103 458.839 89.4884 450.559Q90.8739 442.28 92.6215 434.07Q94.3692 425.86 96.4758 417.734C98.317 410.684 100.169 400.517 104.832 394.892Z"/>
		<path fill="#4B312B" d="M396.946 125.608C397.694 125.516 398.391 125.469 399.143 125.614C400.441 125.865 401.85 126.729 402.584 127.855C403.29 128.939 403.644 130.041 403.297 131.333C402.933 132.684 401.847 133.864 400.68 134.589C395.31 137.925 386.386 139.026 380.245 140.76Q367.551 144.379 355.023 148.537C336.326 154.95 317.647 163.916 300.227 173.222C272.244 188.171 242.146 210.939 219.719 233.406C209.7 243.444 199.644 253.829 190.333 264.522C185.464 270.114 181.105 276.487 175.949 281.775C175.126 282.618 174.262 283.145 173.236 283.704C172.151 283.634 171.149 283.542 170.105 283.214C168.292 282.644 167.312 281.797 166.448 280.068C166.247 278.097 166.579 276.904 167.632 275.208C174.326 264.428 186.516 251.843 195.196 242.445Q199.106 238.226 203.136 234.122Q207.166 230.018 211.314 226.032Q215.461 222.046 219.721 218.182Q223.982 214.317 228.352 210.577Q232.723 206.838 237.2 203.226Q241.676 199.614 246.256 196.133Q250.835 192.652 255.513 189.305Q260.191 185.958 264.963 182.747Q269.736 179.536 274.599 176.465Q279.463 173.394 284.413 170.464Q289.363 167.535 294.396 164.749Q299.429 161.964 304.54 159.325Q309.651 156.687 314.836 154.197Q320.022 151.707 325.277 149.368Q330.532 147.029 335.852 144.843Q341.173 142.657 346.554 140.625C362.984 134.519 379.945 129.824 396.946 125.608Z"/>
		<path fill="#4B312B" d="M423.931 413.558C425.218 413.461 426.174 413.509 427.432 413.799C429.267 415.163 430.021 416.667 430.324 418.945C431.236 425.817 428.806 433.339 424.712 438.763C427.453 442.486 430.06 446.861 434.491 448.74C437.861 450.17 442.009 450.776 445.474 449.321C450.595 447.172 454.144 441.477 455.199 436.19C455.734 433.512 455.784 430.519 456.862 428.005L457.932 427.689C458.811 428.125 459.22 428.16 459.756 429.027C461.015 431.066 460.567 434.086 460.081 436.295C458.789 442.179 455.758 447.839 450.497 451.055C444.076 454.98 438.164 453.961 431.325 452.213C430.601 455.224 429.949 458.054 428.515 460.822Q427.749 461.669 426.936 462.471C423.346 465.962 418.671 467.123 413.781 467.002C409.906 466.906 404.242 466.279 401.582 463.194C400.657 462.121 400.186 461.198 400.248 459.788C403.1 458.151 407.084 461.676 410.05 462.29C413.684 463.042 419.653 462.48 422.737 460.429C424.76 459.083 425.955 457.151 426.343 454.761C427.196 449.511 423.981 445.172 421.208 441.098C415.263 441.298 409.035 441.161 403.446 438.842C401.456 438.016 399.423 436.69 398.749 434.521C398.329 433.168 398.585 431.818 399.164 430.562C402.537 423.256 416.539 416.032 423.931 413.558Z"/>
		<path fill="#4B312B" d="M686.874 207.377L687.3 207.84C688.839 215.289 666.22 278.193 662.534 289.254C665.775 289.483 668.951 290.157 672.139 290.762C668.791 295.517 664.368 298.284 659.661 301.491C660.571 298.669 661.205 295.762 661.901 292.881C658.261 298.989 655.059 305.454 651.681 311.716C650.227 314.335 648.768 316.954 647.096 319.442C646.228 320.733 645.406 322.027 643.824 322.331L643.629 321.563C645.523 315.443 647.997 309.511 649.928 303.393C655.461 285.859 675.29 216.856 686.874 207.377Z"/>
		<path fill="#4B312B" d="M148.679 352.597C156.58 351.444 196.912 365.625 205.668 370.323C208.205 371.684 209.975 372.627 210.836 375.489C209.519 375.652 208.476 375.562 207.233 375.109C197.198 371.454 187.432 367.004 177.396 363.307C167.939 359.823 157.628 357.182 148.679 352.597Z"/>
	</g>
	<g>
		<path fill="#FEFEFE" d="M0 0L1024 0L1024 1024L0 1024L0 0ZM433.334 204.913C416.613 206.518 400.219 211.353 384.388 216.824C331.097 235.241 288.361 263.961 252.594 307.636C233.721 330.68 212.899 367.267 205.961 396.269C189.225 392.028 172.043 385.375 154.571 385.954C160.661 388.655 167.563 389.575 173.929 391.537C184.15 394.689 193.97 398.846 204.424 401.252L202.312 410.109C193.469 405.29 177.475 401.258 167.574 399.85Q175.852 403.59 184.443 406.538Q193.034 409.487 201.864 411.618C201.355 413.475 200.896 415.363 200.297 417.192C190.241 417.247 175.062 416.708 165.925 420.327L165.21 421.202C168.792 422.542 193.56 424.155 199.137 424.58Q196.935 444.538 196.927 464.617C161.627 433.087 132.582 393.317 109.79 351.952C103.301 340.174 97.8394 327.874 91.5056 316.018C124.041 322.653 157.12 331.754 187.674 344.894C197.211 348.996 205.944 354.727 215.419 358.867C220.614 353.143 224.197 343.3 228.096 336.454C233.421 327.102 240.741 318.431 245.331 308.812C221.586 305.554 197.087 303.349 173.103 304.644C154.355 305.655 135.479 308.7 116.745 309.053C122.098 307.035 128.707 306.55 134.363 305.79Q155.229 303.113 176.238 302.04Q197.247 300.968 218.277 301.507C227.735 301.712 237.355 303.018 246.771 302.855C248.588 302.823 252.293 302.74 253.255 300.841C254.013 299.346 254.1 298.108 253.512 296.535C250.905 293.583 231.091 293 225.804 292.668C180.561 289.832 140.483 292.154 95.9714 300.897C91.4949 301.776 80.7493 302.525 77.6273 305.821C76.9457 306.54 76.8024 306.747 76.87 307.728C77.2622 313.426 89.4294 334.541 92.999 341.493C121.81 397.608 148.135 452.398 198.362 492.83C200.648 514.422 209.019 537.644 219.293 556.719C223.746 564.986 229.639 573.312 232.915 582.08C232.947 582.164 232.98 582.246 233.013 582.33C219.416 583.795 138.419 591.249 132.8 594.428L132.088 595.478C132.46 596.538 132.438 596.941 133.57 597.381C138.711 599.383 192.238 593.993 201.522 592.931C212.279 591.7 223.006 589.739 233.797 588.875Q236.981 598.124 240.024 607.421C230.545 611.889 158.458 645.676 157.785 647.785C157.486 648.723 157.718 649.411 157.915 650.34C158.627 651.146 158.27 651.068 159.19 651.115C166.099 651.469 229.736 620.014 241.13 615.02C244.218 624.943 247.024 631.52 256.736 636.592C262.119 639.403 268.002 641.568 273.646 643.8C313.759 659.661 354.96 661.036 397.171 654.52Q396.808 660.531 396.178 666.52C376.441 683.991 359.265 697.541 351.483 724.065C349.355 731.319 347.853 738.568 347.393 746.122C346.444 761.714 347.081 784.218 358.114 796.637C363.472 802.669 370.897 806.827 378.486 809.33Q371.422 854.757 362.897 899.932C360.013 915.475 355.637 932.345 353.749 947.826C377.261 955.632 401.342 960.657 425.562 965.708C443.617 969.473 461.686 973.362 479.802 976.817C489.606 978.687 499.454 980.42 509.289 982.123C514.076 982.951 519.132 983.387 523.794 984.756C554.627 969.015 584.388 952.531 613.641 933.959Q628.132 924.595 642.432 914.941C647.433 911.516 652.416 907.433 657.736 904.555C673.618 904.346 689.563 902.661 705.325 900.789C773.736 892.665 863.732 870.511 913.163 819.572C935.38 796.676 950.225 765.708 949.659 733.497C949.265 711.002 942.093 687.062 925.467 671.208C915.333 661.545 902.322 655.661 888.176 655.971C878.718 656.178 868.857 660.081 862.291 666.989Q861.722 667.595 861.183 668.229Q860.645 668.862 860.138 669.521Q859.63 670.18 859.156 670.862Q858.682 671.545 858.241 672.25Q857.801 672.955 857.395 673.681Q856.99 674.407 856.62 675.152Q856.25 675.897 855.918 676.659Q855.585 677.42 855.29 678.198Q854.994 678.975 854.738 679.766Q854.481 680.556 854.263 681.359Q854.045 682.161 853.866 682.973Q853.688 683.785 853.549 684.605Q853.41 685.425 853.312 686.25Q853.213 687.076 853.155 687.905Q853.097 688.734 853.079 689.566Q853.062 690.397 853.085 691.228C853.333 699.29 856.662 707.056 859.028 714.68C866.555 738.932 864.705 757.513 847.031 776.662C826.767 798.617 797.08 808.699 770.126 819.776C778.008 811.385 787.265 804.104 795.907 796.492C803.926 789.428 811.61 781.991 819.612 774.912C827.017 768.36 838.083 761.602 842.534 752.738C839.137 734.491 835.456 716.314 832.362 698.011Q826.52 661.698 821.551 625.256C812.1 551.668 804.139 477.943 794.077 404.422L786.078 345.535C784.953 337.759 784.289 329.537 782.564 321.887C782.277 320.612 781.937 319.783 780.985 318.843C774.626 318.111 728.181 333.814 718.765 336.798C714.667 333.817 710.321 330.955 706.487 327.646C706.608 323.274 707.266 318.241 704.92 314.354C703.771 313.567 703.801 313.591 702.414 313.743C699.997 315.249 698.681 317.409 697.328 319.859L684.804 308.481C692.986 300.243 741.888 260.277 742.048 253.772L741.343 253.202C737.061 253.66 730.414 258.975 726.726 261.467C701.394 278.582 676.461 298.276 657.21 322.188C652.59 327.926 648.417 333.63 645.521 340.437C656.073 334.996 663.728 324.069 673.142 316.909L675.457 321.344C669.222 327.466 661.891 332.657 655.084 338.128C649.583 342.551 644.314 347.268 638.77 351.634C629.187 359.181 619.272 366.365 609.598 373.805C556.596 414.565 502.246 453.57 449.689 494.924C439.938 502.597 411.559 522.248 405.297 530.357C406.061 550.4 403.858 571.002 402.601 591.027C401.551 607.742 401.535 625.513 398.266 641.916C356.998 651.031 298.757 647.973 262.472 624.705C256.557 620.911 254.065 615.993 251.654 609.633C258.587 606.626 274.617 600.648 278.812 594.645L278.766 593.751C272.868 591.984 255.069 601.808 249.381 604.431C247.378 598.913 245.393 593.409 243.644 587.804C250.832 586.348 263.198 584.731 269.094 580.574L269.547 579.583C267.444 577.777 263.651 578.204 260.995 578.396C254.517 578.865 247.769 579.826 241.437 581.292C240.205 577.655 238.781 573.986 237.835 570.268C242.692 569.651 247.552 569.519 252.419 569.069Q265.85 567.717 279.189 565.645C311.863 560.471 347.87 546.936 368.616 519.961C382.228 502.261 388.847 479.113 385.751 456.949C382.287 432.156 369.824 409.399 349.567 394.347C331.916 381.232 308.252 372.226 286.101 375.626C266.573 378.623 249.145 390.966 237.72 406.746C223.03 427.035 217.455 454.198 221.519 478.818C224.613 497.563 234.146 514.82 246.819 528.826C251.156 533.619 255.977 537.95 260.411 542.646C255.521 539.677 251.044 535.606 246.906 531.669C231.674 517.171 222.891 500.978 217.907 480.6C211.86 455.874 215.862 426.005 229.244 404.203C240.563 385.764 258.558 370.035 280.007 365.023C301.962 359.893 324.068 366.397 343.744 376.144C331.978 340.311 325.35 303.371 318.772 266.329C283.237 287.384 256.368 321.163 234.579 355.521C237.897 345.845 244.143 336.65 249.784 328.175Q252.068 324.701 254.467 321.306Q256.867 317.911 259.38 314.599Q261.894 311.287 264.517 308.063Q267.141 304.838 269.873 301.703Q272.604 298.569 275.44 295.529Q278.276 292.489 281.213 289.546Q284.15 286.604 287.185 283.762Q290.219 280.921 293.349 278.184Q296.478 275.446 299.698 272.817Q302.918 270.187 306.225 267.667Q309.532 265.148 312.923 262.742Q316.313 260.336 319.783 258.046Q323.253 255.756 326.798 253.584Q330.343 251.413 333.96 249.363Q337.577 247.313 341.261 245.386Q344.945 243.459 348.692 241.658C377.198 227.676 410.015 217.687 441.662 214.477C431.858 217.552 421.604 219.214 411.689 221.941C388.45 228.332 355.539 241.526 335.975 255.296C338.203 263.948 342.661 272.535 346.848 280.413C361.2 307.421 378.102 327.999 402.277 346.848C397.602 317.748 400.041 289.108 417.836 264.562C432.675 244.092 456.433 230.935 481.223 227.059C511.257 222.362 541.376 230.62 565.778 248.455C587.222 264.127 603.849 288.34 607.966 314.83C609.778 326.485 608.32 337.766 608.884 349.396Q612.339 345.924 615.629 342.296Q618.92 338.668 622.04 334.892Q625.16 331.116 628.102 327.201Q631.045 323.285 633.803 319.238Q636.562 315.19 639.131 311.02Q641.7 306.85 644.073 302.565Q646.447 298.281 648.621 293.891Q650.794 289.502 652.763 285.017C654.667 280.662 656.87 276.128 657.984 271.503C652.596 263.054 645.763 255.483 640.54 247.009C637.84 242.63 636.001 237.516 633.902 232.816Q629.015 221.609 622.85 211.05C588.839 153.9 548.64 116.214 491.848 82.2434C477.249 73.511 443.756 55.6157 427.92 52.2631Q427.316 52.1358 426.708 52.0348C422.765 98.0541 421.549 160.45 433.334 204.913ZM489.346 239.215C467.257 240.545 446.01 250.001 431.158 266.584C415.353 284.231 409.534 309.357 410.862 332.582C412.369 358.946 423.325 383.982 443.287 401.506C459.591 415.817 479.033 422.758 500.819 421.198Q510.213 420.457 519.375 418.253C542.819 411.888 580.337 393.342 592.658 371.823C601.776 355.898 601.125 334.082 596.297 316.92C588.876 290.536 570.401 266.139 546.387 252.763C528.265 242.669 510.072 238.228 489.346 239.215ZM651.681 311.716C655.059 305.454 658.261 298.989 661.901 292.881C661.205 295.762 660.571 298.669 659.661 301.491C664.368 298.284 668.791 295.517 672.139 290.762C668.951 290.157 665.775 289.483 662.534 289.254C666.22 278.193 688.839 215.289 687.3 207.84L686.874 207.377C675.29 216.856 655.461 285.859 649.928 303.393C647.997 309.511 645.523 315.443 643.629 321.563L643.824 322.331C645.406 322.027 646.228 320.733 647.096 319.442C648.768 316.954 650.227 314.335 651.681 311.716ZM882.572 642.569C883.61 641.872 884.591 641.164 885.27 640.091C890.459 631.887 896.507 604.072 898.527 593.717C902.182 574.989 905.156 556.232 906.445 537.183Q906.659 533.871 906.816 530.556Q906.974 527.241 907.075 523.924Q907.177 520.606 907.222 517.288Q907.267 513.969 907.256 510.65Q907.245 507.332 907.177 504.013Q907.11 500.695 906.987 497.379Q906.863 494.062 906.684 490.748Q906.504 487.434 906.268 484.124Q906.033 480.813 905.741 477.507Q905.449 474.201 905.101 470.901Q904.753 467.6 904.35 464.306Q903.946 461.012 903.487 457.725Q903.028 454.438 902.513 451.159Q901.998 447.881 901.427 444.611Q900.857 441.342 900.231 438.083Q899.605 434.823 898.924 431.575Q898.244 428.327 897.508 425.09Q896.772 421.854 895.981 418.631Q895.191 415.408 894.346 412.198Q893.501 408.989 892.602 405.794Q891.703 402.599 890.749 399.42Q889.796 396.241 888.789 393.079Q887.782 389.916 886.722 386.772Q885.662 383.627 884.548 380.5Q883.435 377.374 882.268 374.267Q881.102 371.159 879.883 368.072Q878.665 364.985 877.394 361.92Q876.123 358.854 874.8 355.81Q873.478 352.766 872.104 349.745Q870.73 346.724 869.305 343.726Q867.88 340.729 866.404 337.756Q864.929 334.783 863.403 331.836C856.621 318.701 849.775 305.678 841.487 293.412Q839.432 290.331 837.32 287.289Q835.209 284.247 833.042 281.244Q830.874 278.241 828.652 275.278Q826.43 272.316 824.154 269.395Q821.878 266.474 819.549 263.595Q817.219 260.716 814.837 257.88Q812.455 255.045 810.021 252.254Q807.588 249.463 805.103 246.717Q802.618 243.971 800.083 241.271Q797.549 238.571 794.965 235.918Q792.38 233.266 789.748 230.661Q787.116 228.056 784.436 225.5Q781.756 222.945 779.03 220.439Q776.303 217.932 773.531 215.477Q770.759 213.021 767.942 210.617Q765.126 208.213 762.265 205.861Q759.405 203.509 756.501 201.21Q753.598 198.911 750.653 196.666Q747.708 194.421 744.722 192.231Q741.736 190.04 738.711 187.905Q735.685 185.769 732.62 183.69Q729.556 181.611 726.454 179.588Q723.352 177.566 720.213 175.601Q717.074 173.636 713.9 171.729Q710.725 169.822 707.516 167.973Q704.307 166.125 701.065 164.336Q697.822 162.547 694.547 160.818Q691.273 159.089 687.967 157.42Q684.661 155.752 681.324 154.144Q677.988 152.537 674.623 150.991Q671.258 149.445 667.865 147.962Q664.472 146.478 661.052 145.057C637.617 135.171 613.485 127.12 588.462 122.294Q584.668 121.569 580.852 120.973C579.145 122.465 577.757 123.777 577.55 126.151C577.468 127.101 577.602 127.746 578.138 128.571C579.869 131.237 600.462 135.499 604.949 136.796C626.235 142.952 647.295 150.078 667.445 159.373Q674.696 162.659 681.813 166.226Q688.93 169.793 695.903 173.636Q702.875 177.478 709.692 181.589Q716.51 185.701 723.161 190.076Q729.812 194.45 736.288 199.082Q742.763 203.713 749.053 208.593Q755.342 213.474 761.436 218.596Q767.531 223.719 773.42 229.075Q776.543 232.003 779.601 234.998Q782.659 237.994 785.65 241.056Q788.641 244.118 791.565 247.246Q794.488 250.373 797.342 253.564Q800.196 256.754 802.979 260.007Q805.761 263.26 808.472 266.573Q811.183 269.886 813.82 273.258Q816.457 276.63 819.02 280.059Q821.582 283.488 824.068 286.973Q826.555 290.458 828.964 293.996Q831.373 297.535 833.704 301.125Q836.034 304.716 838.286 308.357Q840.537 311.998 842.707 315.688Q844.878 319.378 846.967 323.114Q849.056 326.851 851.062 330.632Q853.068 334.414 854.991 338.238Q856.913 342.063 858.751 345.929Q860.589 349.795 862.342 353.701Q864.095 357.606 865.761 361.55Q867.427 365.493 869.006 369.472Q870.585 373.451 872.076 377.463Q873.568 381.476 874.97 385.52Q876.373 389.565 877.686 393.639Q879 397.713 880.223 401.816Q881.446 405.918 882.579 410.046Q883.712 414.174 884.754 418.326Q885.796 422.478 886.746 426.652Q887.697 430.826 888.555 435.02Q889.413 439.214 890.179 443.426Q890.945 447.637 891.618 451.865Q892.291 456.092 892.871 460.334Q893.451 464.575 893.937 468.828Q895.795 483.815 896.327 498.907Q896.859 514 896.059 529.08C894.644 552.382 891.689 576.482 886.085 599.156C883.26 610.588 879.412 621.606 876.189 632.883C875.547 635.131 874.911 638.416 876.452 640.449C877.436 641.748 879.108 642.539 880.712 642.604C881.332 642.628 881.954 642.6 882.572 642.569ZM173.236 283.704C174.262 283.145 175.126 282.618 175.949 281.775C181.105 276.487 185.464 270.114 190.333 264.522C199.644 253.829 209.7 243.444 219.719 233.406C242.146 210.939 272.244 188.171 300.227 173.222C317.647 163.916 336.326 154.95 355.023 148.537Q367.551 144.379 380.245 140.76C386.386 139.026 395.31 137.925 400.68 134.589C401.847 133.864 402.933 132.684 403.297 131.333C403.644 130.041 403.29 128.939 402.584 127.855C401.85 126.729 400.441 125.865 399.143 125.614C398.391 125.469 397.694 125.516 396.946 125.608C379.945 129.824 362.984 134.519 346.554 140.625Q341.173 142.657 335.852 144.843Q330.532 147.029 325.277 149.368Q320.022 151.707 314.836 154.197Q309.651 156.687 304.54 159.325Q299.429 161.964 294.396 164.749Q289.363 167.535 284.413 170.464Q279.463 173.394 274.599 176.465Q269.736 179.536 264.963 182.747Q260.191 185.958 255.513 189.305Q250.835 192.652 246.256 196.133Q241.676 199.614 237.2 203.226Q232.723 206.838 228.352 210.577Q223.982 214.317 219.721 218.182Q215.461 222.046 211.314 226.032Q207.166 230.018 203.136 234.122Q199.106 238.226 195.196 242.445C186.516 251.843 174.326 264.428 167.632 275.208C166.579 276.904 166.247 278.097 166.448 280.068C167.312 281.797 168.292 282.644 170.105 283.214C171.149 283.542 172.151 283.634 173.236 283.704ZM210.836 375.489C209.975 372.627 208.205 371.684 205.668 370.323C196.912 365.625 156.58 351.444 148.679 352.597C157.628 357.182 167.939 359.823 177.396 363.307C187.432 367.004 197.198 371.454 207.233 375.109C208.476 375.562 209.519 375.652 210.836 375.489ZM428.515 460.822C429.949 458.054 430.601 455.224 431.325 452.213C438.164 453.961 444.076 454.98 450.497 451.055C455.758 447.839 458.789 442.179 460.081 436.295C460.567 434.086 461.015 431.066 459.756 429.027C459.22 428.16 458.811 428.125 457.932 427.689L456.862 428.005C455.784 430.519 455.734 433.512 455.199 436.19C454.144 441.477 450.595 447.172 445.474 449.321C442.009 450.776 437.861 450.17 434.491 448.74C430.06 446.861 427.453 442.486 424.712 438.763C428.806 433.339 431.236 425.817 430.324 418.945C430.021 416.667 429.267 415.163 427.432 413.799C426.174 413.509 425.218 413.461 423.931 413.558C416.539 416.032 402.537 423.256 399.164 430.562C398.585 431.818 398.329 433.168 398.749 434.521C399.423 436.69 401.456 438.016 403.446 438.842C409.035 441.161 415.263 441.298 421.208 441.098C423.981 445.172 427.196 449.511 426.343 454.761C425.955 457.151 424.76 459.083 422.737 460.429C419.653 462.48 413.684 463.042 410.05 462.29C407.084 461.676 403.1 458.151 400.248 459.788C400.186 461.198 400.657 462.121 401.582 463.194C404.242 466.279 409.906 466.906 413.781 467.002C418.671 467.123 423.346 465.962 426.936 462.471Q427.749 461.669 428.515 460.822ZM344.304 899.837C345.984 898.079 347.574 896.031 347.408 893.441C347.332 892.261 346.923 891.259 345.977 890.548C341.91 887.491 324.224 880.419 318.139 877.357C302.277 869.377 287.369 860.327 272.645 850.428C258.796 841.117 245.837 830.461 233.369 819.39Q230.263 816.648 227.213 813.844Q224.163 811.04 221.17 808.175Q218.177 805.31 215.242 802.386Q212.307 799.461 209.432 796.478Q206.557 793.495 203.743 790.454Q200.928 787.413 198.176 784.317Q195.423 781.22 192.734 778.069Q190.044 774.917 187.419 771.712Q184.793 768.507 182.233 765.25Q179.672 761.992 177.178 758.684Q174.684 755.376 172.257 752.018Q169.83 748.66 167.471 745.254Q165.112 741.848 162.823 738.395Q160.533 734.942 158.313 731.443Q156.094 727.945 153.945 724.402Q151.796 720.86 149.72 717.275Q147.643 713.69 145.639 710.064Q143.634 706.437 141.704 702.772Q139.773 699.106 137.917 695.402Q136.06 691.698 134.279 687.957Q132.498 684.217 130.792 680.441Q129.086 676.665 127.457 672.855Q125.828 669.046 124.276 665.205Q122.724 661.363 121.25 657.491Q119.775 653.619 118.38 649.718Q116.984 645.817 115.667 641.889Q114.349 637.961 113.112 634.007Q111.874 630.053 110.717 626.075Q109.559 622.097 108.482 618.096Q107.405 614.095 106.408 610.074Q105.412 606.052 104.497 602.011Q103.581 597.97 102.748 593.912Q101.668 588.5 100.739 583.061Q99.8099 577.621 99.0319 572.158Q98.2538 566.695 97.6274 561.212Q97.001 555.729 96.5268 550.232Q96.0526 544.734 95.731 539.225Q95.4093 533.716 95.2405 528.2Q95.0717 522.684 95.0558 517.166Q95.0399 511.648 95.177 506.131Q95.3141 500.615 95.604 495.104Q95.8939 489.593 96.3364 484.093Q96.779 478.592 97.3738 473.106Q97.9686 467.62 98.7152 462.152Q99.4619 456.685 100.36 451.24Q101.258 445.795 102.306 440.377Q103.355 434.96 104.553 429.573Q105.751 424.186 107.098 418.835C108.321 414.116 112.176 403.787 111.453 399.292C111.235 397.938 110.435 396.867 109.317 396.103C107.973 395.184 106.406 395.068 104.832 394.892C100.169 400.517 98.317 410.684 96.4758 417.734Q94.3692 425.86 92.6215 434.07Q90.8739 442.28 89.4884 450.559Q88.1031 458.839 87.0826 467.171Q86.0621 475.503 85.4086 483.871Q84.755 492.24 84.4697 500.629Q84.1843 509.019 84.2677 517.413Q84.351 525.807 84.803 534.189Q85.2549 542.571 86.0745 550.925Q86.5601 556.068 87.1713 561.198Q87.7825 566.328 88.5191 571.441Q89.2557 576.554 90.1171 581.648Q90.9786 586.741 91.9644 591.812Q92.9503 596.884 94.0599 601.929Q95.1695 606.974 96.4022 611.991Q97.635 617.008 98.9901 621.993Q100.345 626.978 101.822 631.929Q103.299 636.879 104.896 641.792Q106.493 646.705 108.21 651.577Q109.927 656.45 111.763 661.278Q113.599 666.107 115.552 670.89Q117.506 675.672 119.576 680.406Q121.645 685.139 123.83 689.82Q126.015 694.501 128.314 699.128Q130.613 703.754 133.025 708.323Q135.436 712.891 137.959 717.4Q140.481 721.908 143.113 726.353Q145.745 730.798 148.485 735.178Q151.225 739.557 154.071 743.869Q156.918 748.18 159.869 752.42Q162.82 756.66 165.873 760.827Q168.927 764.994 172.082 769.084Q175.237 773.175 178.491 777.188Q181.745 781.2 185.096 785.132Q188.447 789.063 191.894 792.912Q195.34 796.76 198.88 800.523Q202.419 804.286 206.05 807.961Q209.68 811.636 213.4 815.221Q217.119 818.807 220.925 822.3Q224.731 825.793 228.621 829.192Q232.512 832.591 236.484 835.894Q246.666 844.436 257.389 852.288Q268.112 860.141 279.329 867.268Q290.547 874.396 302.21 880.769Q313.873 887.141 325.931 892.731C331.738 895.408 337.946 898.844 344.304 899.837Z"/>
		<path fill="#FEFEFE" d="M296.472 384.197C310.929 382.688 326.781 386.957 339.208 394.231Q340.126 394.766 341.031 395.323Q341.936 395.88 342.827 396.46Q343.717 397.039 344.593 397.641Q345.469 398.242 346.33 398.865Q347.191 399.488 348.036 400.132Q348.881 400.777 349.71 401.442Q350.539 402.107 351.351 402.792Q352.163 403.477 352.958 404.183Q353.752 404.888 354.529 405.613Q355.306 406.338 356.065 407.082Q356.824 407.826 357.564 408.588Q358.304 409.351 359.025 410.131Q359.746 410.912 360.447 411.71Q361.149 412.509 361.83 413.324Q362.511 414.14 363.172 414.972Q363.833 415.804 364.473 416.653Q365.113 417.501 365.731 418.365Q366.35 419.229 366.947 420.108Q367.544 420.987 368.119 421.88Q368.694 422.774 369.247 423.682Q369.799 424.589 370.329 425.51Q370.859 426.431 371.366 427.365Q371.873 428.299 372.357 429.246Q372.84 430.192 373.3 431.15Q373.76 432.108 374.196 433.077Q374.632 434.046 375.044 435.025Q375.456 436.005 375.843 436.994Q376.23 437.984 376.593 438.983Q376.956 439.982 377.294 440.989Q377.631 441.997 377.944 443.012Q378.257 444.028 378.544 445.051Q378.831 446.074 379.093 447.104C384.547 468.547 381.479 490.3 370.096 509.292Q369.566 510.172 369.014 511.04Q368.463 511.907 367.89 512.76Q367.318 513.614 366.725 514.453Q366.132 515.293 365.519 516.118Q364.906 516.943 364.273 517.753Q363.641 518.562 362.988 519.357Q362.336 520.151 361.665 520.929Q360.993 521.707 360.303 522.469Q359.613 523.231 358.905 523.975Q358.197 524.72 357.471 525.448Q356.745 526.175 356.002 526.884Q355.258 527.594 354.498 528.285Q353.737 528.977 352.96 529.65Q352.183 530.322 351.39 530.976Q350.597 531.63 349.789 532.264Q348.98 532.898 348.156 533.513Q347.333 534.128 346.494 534.722Q345.656 535.316 344.803 535.89Q343.951 536.464 343.085 537.017Q342.218 537.57 341.339 538.102Q340.46 538.634 339.568 539.145Q338.676 539.655 337.772 540.144Q336.867 540.633 335.952 541.1Q335.036 541.566 334.109 542.011Q333.183 542.455 332.246 542.877Q331.308 543.299 330.361 543.698Q329.414 544.097 328.458 544.473Q327.501 544.849 326.536 545.201Q325.57 545.554 324.597 545.883Q323.623 546.212 322.642 546.518Q321.661 546.823 320.672 547.105Q319.684 547.386 318.689 547.644Q316.954 547.944 315.207 548.162C297.691 550.4 280.147 543.915 266.463 533.167C248.234 518.848 236.292 495.262 233.534 472.433C230.855 450.258 236.146 427.209 250.143 409.577C261.792 394.903 277.928 386.325 296.472 384.197ZM350.309 495.732C354.739 493.47 357.639 490.583 359.146 485.733C363.018 473.271 357.404 457.625 351.314 446.825Q348.807 442.378 345.802 438.25C342.29 440.702 339.361 441.876 335.009 441.152Q334.291 441.031 333.589 440.839Q332.888 440.647 332.208 440.386Q331.529 440.125 330.88 439.797Q330.23 439.469 329.617 439.077Q329.003 438.686 328.432 438.235Q327.861 437.784 327.338 437.278Q326.815 436.772 326.345 436.217Q325.875 435.661 325.463 435.061C323.583 432.309 322.727 428.837 323.539 425.556C324.069 423.416 325.44 421.67 326.72 419.926C321.906 416.893 316.887 414.682 311.033 415.089C305.754 416.248 301.266 418.466 298.257 423.153C293.773 430.135 294.688 439.723 296.577 447.416C300.815 464.686 313.005 482.443 328.444 491.539C335.227 495.536 342.471 497.592 350.309 495.732Z"/>
		<path fill="#FEFEFE" d="M885.964 668.665C895.105 667.659 904.387 670.526 911.892 675.673C926.045 685.379 933.339 701.878 936.38 718.278C941.214 744.354 933.636 771.385 918.716 792.924C883.964 843.095 810.075 867.406 753.043 879.66C740.19 882.422 727.055 884.208 714.113 886.55C701.733 888.561 689.333 889.578 676.84 890.565C681.675 886.857 686.98 883.674 691.974 880.174C700.271 874.361 708.465 868.197 716.566 862.114C723.089 857.216 729.448 852.071 735.849 847.014C739.285 844.3 742.797 840.984 746.658 838.93C752.613 835.763 760.054 835.418 766.425 833.121C801.861 820.344 841.559 807.066 864.162 774.686C877.419 755.694 878.318 734.785 871.311 713.179C869.253 706.833 866.013 700.63 864.947 694.019C864.011 688.215 865.049 682.619 868.617 677.858C872.86 672.198 879.171 669.641 885.964 668.665Z"/>
		<path fill="#4B312B" d="M752.975 853.604L753.078 853.96L751.951 853.963L752.27 854.89C740.806 862.406 729.547 869.823 716.184 873.494L715.849 873.306C717.267 870.925 748.719 855.639 752.975 853.604Z"/>
		<path fill="#4B312B" d="M762.3 861.99L762.687 862.272C762.514 862.563 762.37 862.873 762.168 863.145C761.41 864.16 759.645 865.222 758.624 866.01C750.036 872.641 740.182 876.834 729.614 879.063L729.346 878.85L729.388 878.293C733.243 875.884 737.85 874.312 741.998 872.394Q752.375 867.634 762.3 861.99Z"/>
		<path fill="#4B312B" d="M929.645 732.119C930.802 732.451 931.339 732.392 931.936 733.519C934.522 738.412 930.528 754.224 929.085 759.429C928.325 759.428 927.949 759.252 927.255 758.973C926.507 756.25 928.575 751.378 929.064 748.522C929.977 743.188 929.385 737.524 929.645 732.119Z"/>
		<path fill="#4B312B" d="M921.754 739.171C922.552 739.799 923.036 740.014 923.466 740.967C925.301 745.041 924.795 753.806 923.303 757.945C922.462 757.864 921.843 757.662 921.062 757.343C920.247 754.571 920.997 741.763 921.754 739.171Z"/>
		<path fill="#FEFEFE" d="M435.431 64.6865C440.98 68.4059 451.04 78.9162 456.244 83.9638C487.169 113.959 515.366 146.151 538.026 182.926C543.295 191.477 548.466 199.896 552.715 209.016C539.667 205.598 526.9 203.589 513.448 202.776C504.443 185.142 488.444 163.134 471.249 153.304C472.642 155.374 474.284 157.174 475.939 159.032C488.686 171.668 500.919 186.731 510.155 202.145L497.055 202C492.364 194.131 476.18 171.539 468.232 168.006C467.287 167.586 467.695 167.645 466.681 168.077C466.841 168.829 466.701 168.617 467.135 169.16C470.687 173.597 472.531 177.814 475.308 182.626C479.092 189.184 483.034 195.297 486.309 202.15C475.365 202.06 465.053 202.741 454.191 204.223C440.974 167.917 435.62 103.619 435.431 64.6865Z"/>
		<path fill="#4B312B" d="M475.021 123.314C476.958 123.812 478.562 124.755 480.208 125.856C498.542 138.106 516.225 162.092 527.865 180.807C530.674 185.322 534.42 190.521 535.476 195.761C531.873 194.658 520.331 175.817 517.34 171.652C504.759 154.131 490.324 138.48 475.021 123.314Z"/>
		<defs>
			<linearGradient id="gradient_0" gradientUnits="userSpaceOnUse" x1="500.26431" y1="160.33875" x2="490.59409" y2="166.24779">
				<stop offset="0" stop-color="#422926"/>
				<stop offset="1" stop-color="#5A3A2C"/>
			</linearGradient>
		</defs>
		<path fill="url(#gradient_0)" d="M468.079 131.496C473.999 133.403 483.081 143.706 487.637 148.368C495.034 155.938 522.715 189.277 522.61 197.733C516.856 193.197 506.412 176.942 501.103 170.291C496.864 164.981 468.842 133.912 468.079 131.496Z"/>
		<path fill="#FEFEFE" d="M394.277 675.363L394.788 675.901C395.326 680.406 394.32 685.646 393.903 690.169C392.475 705.664 390.706 721.386 388.235 736.748C386.72 734.15 380.058 719.574 378.971 719.151C378.702 719.697 378.636 719.755 378.509 720.449C377.237 727.384 383.39 740.869 387.611 746.386L386.64 752.045C386.494 753.708 386.218 755.367 385.983 757.02C385.262 757.592 385.11 757.511 384.22 757.431C379.066 756.965 371.408 754.266 368.119 750.24C362.475 743.331 362.381 730.22 363.418 721.758C365.644 703.586 380.349 686.331 394.277 675.363Z"/>
		<path fill="#FEFEFE" d="M356.709 750.922C358.199 752.475 359.186 755.177 360.375 757.036C365.334 764.784 375.543 767.759 384.002 769.507Q383.209 774.758 382.268 779.985C374.749 778.242 370.663 774.694 365.61 769.18C367.07 773.037 368.665 776.508 371.057 779.884C374.13 783.302 376.962 785.912 381.001 788.144C380.531 791.459 379.84 794.72 379.159 797.996C374.354 796.723 369.851 794.345 366.369 790.758C357.406 781.527 356.459 762.98 356.709 750.922Z"/>
		<path fill="#FEFEFE" d="M492.258 252.222C510.493 252.216 527.561 256.647 543.007 266.479C563.724 279.666 579.068 299.58 584.299 323.8C588.231 342.008 586.751 363.509 576.269 379.388C562.016 400.982 533.748 410.489 509.613 415.542Q504.499 416.402 499.323 416.721C479.201 417.809 460.012 410.503 445.11 397.001C427.542 381.084 417.505 357.031 416.556 333.501C415.74 313.251 422.93 291.527 436.759 276.555C451.695 260.383 470.644 253.141 492.258 252.222ZM522.349 379.968C528.136 373.673 529.491 366.087 529.187 357.818C528.711 344.872 523.106 332.625 515.467 322.351C513.494 325.389 511.947 327.854 508.183 328.77C504.784 329.597 501.371 328.496 498.545 326.578C495.053 324.209 491.855 320.191 491.057 315.969C490.622 313.667 490.968 311.418 492.357 309.503C493.578 307.821 495.327 306.362 496.842 304.943C490.862 301.678 485.3 300.166 478.414 300.631C472.798 301.925 468.192 304.238 465.109 309.361C460.32 317.319 461.665 327.671 463.997 336.204C468.529 352.786 480.187 369.336 495.371 377.781C502.047 381.495 510.65 384.462 518.244 382.092C519.703 381.636 521.078 380.808 522.349 379.968Z"/>
		<path fill="#4B312B" d="M136.689 341.571C147.889 342.029 205.844 356.805 213.2 364.282C213.913 365.006 213.687 365.42 213.721 366.387C213.246 366.585 212.981 366.731 212.427 366.772C209.561 366.989 193.58 359.914 189.649 358.515C177.869 354.323 165.896 350.864 153.908 347.335C148.9 345.861 143.11 344.732 138.341 342.726C137.681 342.448 137.222 342.032 136.689 341.571Z"/>
		<path fill="#4B312B" d="M166.307 384.653C170.393 384.325 174.354 384.783 178.404 385.289C184.48 386.048 202.833 388.278 206.246 392.675C199.695 393.519 173.681 386.921 166.307 384.653Z"/>
		<path fill="#4B312B" d="M274.996 614.755C275.779 614.948 275.953 615.062 276.561 615.54C276.561 615.719 276.585 615.899 276.561 616.076C276.211 618.685 271.702 622.114 269.838 623.901L268.495 624.068C267.863 623.247 268.045 623.014 268.037 622.013C269.694 619.249 272.684 617.034 274.996 614.755Z"/>
		<path fill="#4B312B" d="M326.206 628.252C327.259 628.328 327.635 628.313 328.558 628.88C329.354 632.356 327.338 635.916 326.066 639.084C324.855 639.331 325.44 639.413 324.319 638.792C323.616 635.932 325.462 631.129 326.206 628.252Z"/>
		<path fill="#4B312B" d="M283.778 620.795L285.321 621.751L285.447 622.694C284.075 625.555 281.465 627.89 279.445 630.36C278.579 630.2 278.287 630.057 277.56 629.616C277.657 626.551 281.732 623.057 283.778 620.795Z"/>
		<path fill="#4B312B" d="M291.679 624.215C292.46 624.465 292.658 624.606 293.256 625.121C293.311 627.806 290.571 631.499 289.229 633.846C288.226 633.316 288.169 633.253 287.643 632.246C288.055 629.199 290.021 626.72 291.679 624.215Z"/>
		<path fill="#4B312B" d="M317.847 629.179C318.612 629.663 318.979 629.794 319.209 630.748C319.784 633.137 318.288 636.949 317.228 639.063C316.872 638.781 316.652 638.628 316.338 638.276C315.459 637.288 315.648 635.215 315.815 633.999C316.055 632.24 316.413 630.335 317.847 629.179Z"/>
		<path fill="#4B312B" d="M266.218 612.937C266.825 613.033 267.196 613.277 267.728 613.569L267.717 614.698C266.429 616.606 264.846 617.841 263.08 619.272C262.325 619.093 262.026 619.002 261.455 618.434C260.821 617.804 261.045 618.073 261.092 616.98C262.396 615.177 264.377 614.131 266.218 612.937Z"/>
		<path fill="#4B312B" d="M299.149 628.57C300.53 628.963 300.85 628.895 301.698 630.022C302.007 632.15 300.813 634.201 300.012 636.134C299.664 636.287 299.054 636.188 298.67 636.179L298.029 635.129C297.919 632.84 298.579 630.765 299.149 628.57Z"/>
		<path fill="#4B312B" d="M307.792 629.675C308.677 630.07 309.024 630.482 309.61 631.244C310.183 633.396 309.566 635.304 309.096 637.422C308.396 637.164 307.941 636.861 307.329 636.445C306.376 633.951 307.08 632.122 307.792 629.675Z"/>
	</g>
</svg>
